<svg fill="#292929" xmlns="http://www.w3.org/2000/svg" width="26" height="26"><path fill-rule="evenodd" d="M5.096 0h15.809C23.707 0 26 2.293 26 5.094v15.813c0 2.8-2.293 5.093-5.096 5.093H5.096C2.293 26 0 23.707 0 20.906V5.094C0 2.293 2.293 0 5.096 0zm14.2 15.736c0-.958-.263-1.721-.786-2.287-.524-.566-1.222-.938-2.093-1.123v-.074a3.036 3.036 0 001.424-1.188c.345-.537.518-1.148.518-1.837 0-.595-.129-1.119-.377-1.574-.247-.452-.626-.818-1.131-1.091a4.46 4.46 0 00-1.501-.494c-.534-.08-1.318-.12-2.353-.12h-5.06v14.108h5.721c.98 0 1.784-.088 2.418-.265a4.993 4.993 0 001.752-.889c.448-.35.805-.786 1.069-1.316.266-.532.399-1.148.399-1.85zm-4.537-5.797c0-.229-.059-.461-.176-.702a1.044 1.044 0 00-.547-.521 2.2 2.2 0 00-.826-.169 62.466 62.466 0 00-1.428-.012h-.246v2.985h.447c.604 0 1.029-.007 1.272-.02.243-.014.497-.078.756-.196.28-.132.479-.318.584-.551.109-.234.164-.506.164-.814zm.887 5.732c0-.436-.085-.775-.264-1.022-.177-.25-.443-.433-.798-.558-.212-.087-.509-.131-.884-.141s-.88-.014-1.509-.014h-.655v3.532h.191c.922 0 1.559-.005 1.911-.02a2.995 2.995 0 001.081-.255c.321-.141.556-.343.705-.609.148-.268.222-.574.222-.913z" clip-rule="evenodd"/></svg>