<svg xmlns="http://www.w3.org/2000/svg" xmlns:xlink="http://www.w3.org/1999/xlink"><symbol id="icon-github" viewBox="0 0 24 24"><path d="M12 .5C5.37.5 0 5.78 0 12.292c0 5.211 3.438 9.63 8.205 11.188.6.111.82-.254.82-.567 0-.28-.01-1.022-.015-2.005-3.338.711-4.042-1.582-4.042-1.582-.546-1.361-1.335-1.725-1.335-1.725-1.087-.731.084-.716.084-.716 1.205.082 1.838 1.215 1.838 1.215 1.07 1.803 2.809 1.282 3.495.981.108-.763.417-1.282.76-1.577-2.665-.295-5.466-1.309-5.466-5.827 0-1.287.465-2.339 1.235-3.164-.135-.298-.54-1.497.105-3.121 0 0 1.005-.316 3.3 1.209.96-.262 1.98-.392 3-.398 1.02.006 2.04.136 3 .398 2.28-1.525 3.285-1.209 3.285-1.209.645 1.624.24 2.823.12 3.121.765.825 1.23 1.877 1.23 3.164 0 4.53-2.805 5.527-5.475 5.817.42.354.81 1.077.81 2.182 0 1.578-.015 2.846-.015 3.229 0 .309.21.678.825.56C20.565 21.917 24 17.495 24 12.292 24 5.78 18.627.5 12 .5z"/></symbol><symbol id="icon-resume" viewBox="0 0 297.384 297.384"><path d="M265.53 78.112a5.75 5.75 0 00-.06-.397c-.008-.045-.013-.091-.02-.135a5.57 5.57 0 00-.116-.462c-.006-.019-.009-.038-.015-.058a5.478 5.478 0 00-.162-.45c-.007-.018-.012-.037-.02-.055a5.623 5.623 0 00-.193-.408c-.013-.025-.023-.053-.037-.077-.064-.122-.139-.239-.212-.355-.022-.035-.042-.072-.065-.106a4.797 4.797 0 00-.228-.308c-.032-.041-.06-.085-.093-.124a5.39 5.39 0 00-.305-.337c-.02-.02-.035-.041-.055-.061L190.776 1.608v-.001a5.62 5.62 0 00-.398-.36c-.03-.025-.063-.047-.094-.07a5.657 5.657 0 00-.338-.25c-.028-.02-.059-.035-.087-.053a5.49 5.49 0 00-.376-.225c-.018-.01-.038-.018-.057-.027a5.267 5.267 0 00-.43-.203c-.008-.004-.018-.006-.025-.01a5.35 5.35 0 00-.479-.172l-.02-.004a5.298 5.298 0 00-.5-.126c-.021-.005-.044-.006-.065-.011a5.55 5.55 0 00-.468-.069c-.1-.01-.201-.011-.303-.015-.079-.003-.159-.012-.241-.012H37.315a5.488 5.488 0 00-5.488 5.488v286.408a5.488 5.488 0 005.488 5.487h222.754a5.488 5.488 0 005.488-5.487V78.659l-.002-.021c0-.178-.009-.353-.025-.526zm-18.708-4.938l-54.435.006-.004-54.442 54.439 54.436zm7.759 213.235H42.802V10.976h138.605l.004 67.693a5.486 5.486 0 005.488 5.487l67.682-.008v202.261z"/><path d="M112.038 76.817c12.582 0 22.817-10.238 22.817-22.823s-10.235-22.823-22.817-22.823c-12.583 0-22.82 10.238-22.82 22.823-.001 12.585 10.237 22.823 22.82 22.823zm0-34.671c6.529 0 11.842 5.315 11.842 11.849 0 6.532-5.313 11.848-11.842 11.848-6.531 0-11.844-5.315-11.844-11.848 0-6.534 5.312-11.849 11.844-11.849zM86.541 118.47a5.488 5.488 0 005.488-5.487v-9.626c0-6.222 5.064-11.283 11.286-11.283h17.582c6.226 0 11.291 5.062 11.291 11.283v9.626a5.487 5.487 0 1010.975 0v-9.626c0-12.273-9.988-22.258-22.267-22.258h-17.582c-12.275 0-22.262 9.984-22.262 22.258v9.626a5.49 5.49 0 005.489 5.487zm-5.487 38.73a5.487 5.487 0 005.487 5.487h124.305a5.488 5.488 0 100-10.975H86.541a5.488 5.488 0 00-5.487 5.488zm129.792 75.715H86.541a5.488 5.488 0 000 10.976h124.305a5.488 5.488 0 100-10.976zm0-40.602H86.541a5.488 5.488 0 000 10.976h124.305a5.488 5.488 0 100-10.976z"/></symbol><symbol id="icon-contact" viewBox="-20 -99 640 640"><path d="M179.25 211c35.691 0 64.625-28.938 64.625-64.625 0-35.691-28.934-64.625-64.625-64.625s-64.625 28.934-64.625 64.625c.047 35.672 28.953 64.578 64.625 64.625zm0-104.125c21.883 0 39.625 17.738 39.625 39.625 0 21.883-17.742 39.625-39.625 39.625-21.887 0-39.625-17.742-39.625-39.625.008-21.883 17.742-39.617 39.625-39.625zm0 128A96.985 96.985 0 00109 264.25c-18.75 19.125-29 45.125-29 73.375.02 6.895 5.605 12.48 12.5 12.5H266c6.895-.02 12.48-5.605 12.5-12.5 0-28.25-10.25-54.25-29-73.375a96.979 96.979 0 00-70.25-29.375zm-73.375 90.25a76.468 76.468 0 0121-43.375 73.64 73.64 0 01104.75 0 76.824 76.824 0 0121 43.375zm0 0"/><path d="M537.5-5.25h-475C27.988-5.234.016 22.738 0 57.25v317.5c.016 34.512 27.988 62.484 62.5 62.5h475c34.512-.016 62.484-27.988 62.5-62.5V57.25c-.016-34.512-27.988-62.484-62.5-62.5zm37.5 380c-.059 20.684-16.816 37.441-37.5 37.5h-475c-20.684-.059-37.441-16.816-37.5-37.5V57.25c.059-20.684 16.816-37.441 37.5-37.5h475c20.684.059 37.441 16.816 37.5 37.5zm0 0"/><path d="M506.75 203.5H361.125c-6.902 0-12.5 5.594-12.5 12.5s5.598 12.5 12.5 12.5H506.75c6.902 0 12.5-5.594 12.5-12.5s-5.598-12.5-12.5-12.5zm0 80H361.125c-6.902 0-12.5 5.594-12.5 12.5s5.598 12.5 12.5 12.5H506.75c6.902 0 12.5-5.594 12.5-12.5s-5.598-12.5-12.5-12.5zm0-160H361.125c-6.902 0-12.5 5.594-12.5 12.5s5.598 12.5 12.5 12.5H506.75c6.902 0 12.5-5.594 12.5-12.5s-5.598-12.5-12.5-12.5zm0 0"/></symbol><symbol id="icon-keyboard" viewBox="0 0 30.156 30.157"><path d="M3.946 16.708h2.138a.543.543 0 00.542-.542v-2.138a.543.543 0 00-.542-.542H3.946a.543.543 0 00-.541.542v2.138c0 .298.243.542.541.542zm4.028 0h2.136a.543.543 0 00.542-.542v-2.138a.543.543 0 00-.542-.542H7.974a.543.543 0 00-.542.542v2.138c0 .298.243.542.542.542zm4.024 0h2.137a.543.543 0 00.542-.542v-2.138a.543.543 0 00-.542-.542h-2.137a.543.543 0 00-.542.542v2.138c0 .298.243.542.542.542zm4.025 0h2.137a.543.543 0 00.542-.542v-2.138a.543.543 0 00-.542-.542h-2.137a.543.543 0 00-.542.542v2.138c0 .298.244.542.542.542zm4.028 0h2.135a.542.542 0 00.541-.542v-2.138a.542.542 0 00-.541-.542h-2.135c-.3 0-.543.244-.543.542v2.138c0 .298.243.542.543.542zm6.161-3.221h-2.138a.543.543 0 00-.542.542v2.138c0 .298.243.542.542.542h2.138a.544.544 0 00.542-.542v-2.138a.543.543 0 00-.542-.542zM6.084 21.571H3.946a.543.543 0 00-.541.542v2.136c0 .299.243.543.541.543h2.138a.543.543 0 00.542-.543v-2.136a.543.543 0 00-.542-.542zm16.1 0H7.974a.543.543 0 00-.542.542v2.136c0 .299.243.543.542.543h14.211a.542.542 0 00.541-.543v-2.136a.543.543 0 00-.542-.542zm4.028 0h-2.138a.543.543 0 00-.542.542v2.136c0 .299.243.543.542.543h2.138a.544.544 0 00.542-.543v-2.136a.544.544 0 00-.542-.542zM9.985 17.512a.544.544 0 00-.542.543v2.137c0 .298.244.542.542.542h2.138a.544.544 0 00.542-.542v-2.137a.544.544 0 00-.542-.543H9.985zm-6.039 3.221h4.158a.543.543 0 00.542-.543v-2.137a.542.542 0 00-.542-.541H3.946a.542.542 0 00-.541.541v2.137c0 .299.243.543.541.543zm22.266-3.221h-4.157c-.3 0-.543.244-.543.543v2.137c0 .298.243.542.543.542h4.157a.544.544 0 00.542-.542v-2.137a.544.544 0 00-.542-.543zm-12.743.543v2.137c0 .298.244.542.542.542h2.137a.543.543 0 00.541-.542v-2.137a.543.543 0 00-.541-.543h-2.137a.544.544 0 00-.542.543zm4.566-.543a.544.544 0 00-.542.543v2.137c0 .298.244.542.542.542h2.139a.542.542 0 00.541-.542v-2.137a.542.542 0 00-.541-.543h-2.139z"/><path d="M27.758 10.778H15.602c-.095-1.71-.621-2.66-1.135-3.574-.522-.926-1.015-1.802-1.015-3.585a.541.541 0 10-1.083 0c0 2.067.587 3.11 1.154 4.116.466.827.904 1.616.995 3.043H2.399A2.402 2.402 0 000 13.178v11.504a2.401 2.401 0 002.399 2.397h25.359a2.4 2.4 0 002.398-2.397V13.179a2.4 2.4 0 00-2.398-2.401zm1.316 13.904c0 .726-.592 1.314-1.316 1.314H2.399c-.726 0-1.316-.59-1.316-1.314V13.179c0-.727.591-1.317 1.316-1.317h25.359c.725 0 1.315.591 1.315 1.317l.001 11.503z"/></symbol><symbol id="icon-tools" viewBox="0 0 1708 1708.749"><path d="M224.941 305.355a30.498 30.498 0 0114.121 8l435.075 435.082 78.726-78.718-435.082-435.082a30.533 30.533 0 01-8.008-14.157l-27.382-109.156L100.867 7.547l-88.89 88.887 103.808 181.648zm0 0"/><path d="M611.824 1297.79l690.395-690.407a30.458 30.458 0 0128.91-8.024c90.898 23.297 187.45 3.11 261.43-54.609 73.992-57.723 117.03-146.488 116.535-240.32 0-5.715-.168-11.473-.54-17.282l-160.577 160.559a30.427 30.427 0 01-31.141 7.352l-182.637-60.887a30.392 30.392 0 01-19.262-19.23l-60.87-182.641c-3.653-10.922-.805-22.992 7.351-31.145L1421.992.586c-96.695-6.016-190.441 34.61-252.203 109.25-61.754 74.656-84.07 174.351-60.05 268.2a30.42 30.42 0 01-8 28.925l-690.384 690.36a30.71 30.71 0 01-28.918 8.015 300.648 300.648 0 00-73.582-9.469c-131.097-.863-248.234 81.781-291.398 205.598-43.14 123.805-2.738 261.355 100.512 342.16s246.476 86.984 356.289 15.344c109.82-71.637 161.89-205.2 129.527-332.27-2.574-10.37.469-21.36 8.04-28.91zM382.95 1522.03H234.785l-73.074-121.754 73.074-121.773H382.95l73.059 121.773zm117.477-356.363l669.672-669.68 43.035 43.043-669.672 669.68zm959.073 527.2c67.8 25.492 144.242 8.961 195.465-42.258 51.226-51.234 67.762-127.687 42.258-195.472zm0 0"/><path d="M1654.969 1389.2l-341.887-342.024c-37.71 31.699-93.398 29.289-128.254-5.524-34.86-34.804-37.316-90.476-5.672-128.226l-48.418-48.477-261.355 261.367 48.71 48.707c37.712-31.699 93.407-29.296 128.243 5.504 34.855 34.813 37.328 90.493 5.68 128.246l341.597 341.778c3.727 3.726 7.66 7.18 11.633 10.539l260.27-260.27c-3.352-3.98-6.82-7.898-10.547-11.62zm-180.477 123.905l-304.394-304.394 43.035-43.043 304.402 304.41zm0 0"/></symbol><symbol id="icon-return" viewBox="0 0 512.001 512.001"><path d="M384.834 180.699H36.101l73.326-82.187c4.755-5.33 4.289-13.505-1.041-18.26-5.328-4.754-13.505-4.29-18.26 1.041l-82.582 92.56c-10.059 11.278-10.058 28.282.001 39.557l82.582 92.561a12.897 12.897 0 009.654 4.323c3.064 0 6.139-1.083 8.606-3.282 5.33-4.755 5.795-12.93 1.041-18.26l-73.326-82.188h348.733c55.858 0 101.3 45.444 101.3 101.3s-45.443 101.3-101.3 101.3h-61.58c-7.143 0-12.933 5.791-12.933 12.933 0 7.142 5.79 12.933 12.933 12.933h61.58c70.12 0 127.166-57.046 127.166-127.166-.001-70.119-57.047-127.165-127.167-127.165z"/></symbol></svg>