<?xml version="1.0" encoding="UTF-8" standalone="no"?>
<!-- Created with Inkscape (http://www.inkscape.org/) -->

<svg fill="#fff"
   xmlns:dc="http://purl.org/dc/elements/1.1/"
   xmlns:cc="http://creativecommons.org/ns#"
   xmlns:rdf="http://www.w3.org/1999/02/22-rdf-syntax-ns#"
   xmlns:svg="http://www.w3.org/2000/svg"
   xmlns="http://www.w3.org/2000/svg"
   xmlns:sodipodi="http://sodipodi.sourceforge.net/DTD/sodipodi-0.dtd"
   xmlns:inkscape="http://www.inkscape.org/namespaces/inkscape"
   version="1.1"
   id="svg2"
   width="109"
   height="19"
   viewBox="0 0 109 19"
   sodipodi:docname="log-black.svg"
   inkscape:version="0.92.4 (5da689c313, 2019-01-14)">
  <metadata
     id="metadata8">
    <rdf:RDF>
      <cc:Work
         rdf:about="">
        <dc:format>image/svg+xml</dc:format>
        <dc:type
           rdf:resource="http://purl.org/dc/dcmitype/StillImage" />
        <dc:title></dc:title>
      </cc:Work>
    </rdf:RDF>
  </metadata>
  <defs
     id="defs6" />
  <sodipodi:namedview
     pagecolor="#ffffff"
     bordercolor="#666666"
     borderopacity="1"
     objecttolerance="10"
     gridtolerance="10"
     guidetolerance="10"
     inkscape:pageopacity="0"
     inkscape:pageshadow="2"
     inkscape:window-width="1920"
     inkscape:window-height="1017"
     id="namedview4"
     showgrid="false"
     inkscape:zoom="2.6055046"
     inkscape:cx="54.5"
     inkscape:cy="9.5"
     inkscape:window-x="-8"
     inkscape:window-y="-8"
     inkscape:window-maximized="1"
     inkscape:current-layer="svg2" />
  <g
     id="g424"
     transform="translate(0.76760138,0.6866198)">
    <path
       style="fill-opacity:1"
       d="M 48.338386,17.524461 C 43.751329,14.311561 44.667967,1.6234071 49.57613,0.39153646 53.827961,-0.67560513 56,2.287493 56,9.1549876 56,13.666667 55.543771,15.456229 54,17 c -2.391571,2.391571 -2.925347,2.441017 -5.661614,0.524461 z M 52.5,8.986305 C 52.5,3.9611384 52.170533,2.5 51.037427,2.5 c -1.989882,0 -3.437615,5.5532751 -2.604905,9.992004 0.503609,2.684469 1.123407,3.547582 2.374487,3.306646 C 52.190146,15.532282 52.5,14.285477 52.5,8.986305 Z M 4,10.5 C 4,3.6666667 3.8222222,3 2,3 0.88888889,3 0,2.3333333 0,1.5 0,0.36905554 1.2156648,0 4.940983,0 10.080386,0 12.757804,1.7275632 9.1006156,2.6839394 7.2057324,3.1794625 7,3.9563834 7,10.616631 7,16.512959 6.6978938,18 5.5,18 4.3,18 4,16.5 4,10.5 Z M 12,9 c 0,-9 0,-9 4,-9 2.888889,0 4,0.41666667 4,1.5 C 20,2.4333333 19.055556,3 17.5,3 15.5,3 15,3.5 15,5.5 c 0,2 0.5,2.5 2.5,2.5 1.375,0 2.5,0.45 2.5,1 0,0.55 -1.125,1 -2.5,1 -2.111111,0 -2.5,0.466667 -2.5,3 0,2.533333 0.388889,3 2.5,3 1.375,0 2.5,0.45 2.5,1 0,0.55 -1.8,1 -4,1 -4,0 -4,0 -4,-9 z m 10.627625,4.972638 C 24.135128,10.205017 24.097166,8.1839014 22.407442,2.25 c -1.00262,-3.5209579 1.401873,-2.70325848 2.908513,0.9891023 1.321692,3.2391024 1.321692,3.2391024 2.450849,0 C 28.38784,1.457596 29.36937,0 29.94798,0 31.32074,0 31.277122,1.5916372 29.791797,5.6992296 28.788866,8.4727859 28.86568,9.8015618 30.243915,13.520228 31.564752,17.084027 31.632129,18 30.573438,18 29.8415,18 28.647767,16.563848 27.920699,14.808551 c -1.321941,-3.191449 -1.321941,-3.191449 -2.624188,0 C 24.580275,16.563848 23.324198,18 22.505229,18 21.206776,18 21.222442,17.484536 22.627625,13.972638 Z M 33,9 c 0,-7.3333333 0.277778,-9 1.5,-9 1.083333,0 1.5,1.1111111 1.5,4 0,3.2918374 0.343394,4 1.939635,4 1.511094,0 2.008206,-0.811442 2.25,-3.6727004 C 40.360336,2.3073144 41.0625,0.46981439 41.75,0.24396627 42.688395,-0.06430247 43,2.0976624 43,8.9166667 43,16.324074 42.723242,18 41.5,18 40.416667,18 40,16.888889 40,14 c 0,-3.333333 -0.333333,-4 -2,-4 -1.666667,0 -2,0.666667 -2,4 0,2.888889 -0.416667,4 -1.5,4 C 33.277778,18 33,16.333333 33,9 Z m 25.580706,0.25 c 0.376771,-4.8125 0.830838,-8.91809237 1.009038,-9.1235386 1.10406,-1.272868 3.285033,1.3546349 4.384767,5.2825022 C 64.681487,7.9340336 65.572434,10 65.954393,10 66.336353,10 67.312052,7.8644873 68.122614,5.2544161 69.02026,2.3639274 70.261621,0.38071535 71.298182,0.18109195 72.746604,-0.0978488 73,0.73903904 73,5.8016758 73,9.0732541 73.28125,13.15625 73.625,14.875 74.119872,17.349359 73.911667,18 72.625,18 71.407609,18 71,17.038462 71,14.166667 71,9.0411907 69.805836,8.1211539 68.436239,12.191432 66.799674,17.055107 64.610252,16.895907 62.922404,11.790504 61.503963,7.5 61.503963,7.5 61.199722,12.75 60.975764,16.614628 60.499685,18 59.395574,18 58.12445,18 58.000157,16.66535 58.580706,9.25 Z M 75,17.562053 C 75,16.933162 77.994247,3.8327264 78.614017,1.75 78.900434,0.7875 79.913812,0 80.865967,0 c 1.362994,0 2.162911,1.9141639 3.761043,9 1.690594,7.495797 1.792178,9 0.607801,9 -0.782128,0 -1.657406,-0.9 -1.945062,-2 -0.300524,-1.149207 -1.364016,-2 -2.5,-2 -1.135984,0 -2.199476,0.850793 -2.5,2 C 77.85797,17.651125 75,19.008159 75,17.562053 Z M 81.929715,9.75 c -0.03866,-0.6875 -0.4212,-2.1491203 -0.850096,-3.2480452 -0.665875,-1.7061184 -0.84946,-1.5234856 -1.256521,1.25 C 79.489701,10.023533 79.745267,11 80.673193,11 c 0.729744,0 1.295179,-0.5625 1.256522,-1.25 z m 6.281352,-0.5 C 88.5,0.5 88.5,0.5 91.624568,0.19599659 95.524274,-0.18342353 98,2.1236698 98,6.13717 98,10.46039 96.321742,13 93.464816,13 91.502346,13 91,13.509516 91,15.5 c 0,1.583665 -0.564071,2.5 -1.538933,2.5 -1.290006,0 -1.492197,-1.415339 -1.25,-8.75 z M 94.5,6.5 C 94.5,3.5116169 94.066432,2.4438925 92.75,2.1903709 91.286057,1.9084413 91,2.612899 91,6.5 c 0,3.887101 0.286057,4.591559 1.75,4.309629 C 94.066432,10.556108 94.5,9.4883831 94.5,6.5 Z m 7.5,4.116631 C 102,4.0742666 101.77219,3.173689 100,2.710251 95.915971,1.6422534 98.036766,0 103.5,0 c 5.46323,0 7.58403,1.6422534 3.5,2.710251 -1.77219,0.463438 -2,1.3640156 -2,7.90638 C 105,16.512959 104.69789,18 103.5,18 102.30211,18 102,16.512959 102,10.616631 Z"
       id="path448"
       inkscape:connector-curvature="0" />
    <path
       style="fill-opacity:1"
       d="M 48.05978,17.24949 C 46.400639,15.906 45.873523,14.336527 45.792754,10.49949 45.649453,3.6917502 46.645905,1.1269762 49.735368,0.35157036 53.658724,-0.6331294 56,2.8273086 56,9.610784 56,13.666667 55.505185,15.494815 54,17 c -2.448111,2.448111 -3.186728,2.479133 -5.94022,0.24949 z M 53.1508,12.75 C 53.562217,3.8832547 51.997582,-0.03404331 49.432679,3.4411296 46.76123,7.0606625 47.959858,16 51.116631,16 52.543857,16 53.036523,15.212866 53.1508,12.75 Z M 4,10.616631 C 4,4.0742666 3.7721896,3.173689 2,2.710251 -1.900254,1.6903116 -0.02923359,0 5,0 8.7777778,0 10,0.36666667 10,1.5 10,2.325 9.325,3 8.5,3 7.3,3 7,4.5 7,10.5 7,16.5 6.7,18 5.5,18 4.3021062,18 4,16.512959 4,10.616631 Z M 12,9 c 0,-9 0,-9 4,-9 2.888889,0 4,0.41666667 4,1.5 0,1 -1,1.5 -3,1.5 -2.533333,0 -3,0.3888889 -3,2.5 0,2.1111111 0.466667,2.5 3,2.5 1.65,0 3,0.45 3,1 0,0.55 -1.35,1 -3,1 -2.666667,0 -3,0.333333 -3,3 0,2.666667 0.333333,3 3,3 1.65,0 3,0.45 3,1 0,0.55 -1.8,1 -4,1 -4,0 -4,0 -4,-9 z m 10.88352,4.75 C 24.447505,10.082615 24.521606,9.0201998 23.424061,6 21.835446,1.6284861 21.719572,0 22.997132,0 c 0.548423,0 1.591893,1.457596 2.318823,3.2391023 1.321692,3.2391024 1.321692,3.2391024 2.450849,0 C 29.050235,-0.44255193 31.614915,-1.34027 30.592558,2.25 28.902834,8.1839014 28.864872,10.205017 30.372375,13.972638 31.639922,17.140549 31.704147,18 30.67333,18 c -0.720763,0 -1.983272,-1.420622 -2.805577,-3.156938 -1.4951,-3.156939 -1.4951,-3.156939 -2.802747,0 C 24.3458,16.579378 23.152945,18 22.414217,18 21.363644,18 21.465869,17.074248 22.88352,13.75 Z M 33.211067,9.3307006 C 33.405392,3.5000811 33.909301,0.52582977 34.75,0.2473673 35.613516,-0.03865258 36,1.0958486 36,3.9166667 36,7.2909729 36.336797,8 37.939635,8 c 1.511094,0 2.008206,-0.811442 2.25,-3.6727004 C 40.360336,2.3073144 41.0625,0.46981439 41.75,0.24396627 42.688395,-0.06430247 43,2.0976624 43,8.9166667 43,16.324074 42.723242,18 41.5,18 40.416667,18 40,16.888889 40,14 c 0,-3.333333 -0.333333,-4 -2,-4 -1.666667,0 -2,0.666667 -2,4 0,2.933864 -0.410178,4 -1.538933,4 -1.289119,0 -1.492031,-1.40728 -1.25,-8.6692994 z M 58.364076,13.360429 C 58.713834,10.808665 59,6.7256687 59,4.2871046 c 0,-3.65157122 0.302851,-4.37542923 1.716691,-4.10314836 1.098718,0.21159361 2.323751,2.30787246 3.403062,5.82332416 1.022283,3.329706 1.916776,4.9020246 2.27146,3.9927196 0.3218,-0.825 1.197694,-3.3 1.946433,-5.5 0.748738,-2.2 2.10407,-4.14549587 3.011848,-4.32332416 1.403315,-0.27490102 1.652551,0.69858153 1.664161,6.49999996 C 73.021165,10.429504 73.298649,14.5125 73.630286,15.75 74.073577,17.404134 73.805131,18 72.616631,18 71.36729,18 71,16.977623 71,13.5 71,8.2380793 69.687052,7.6131922 68.359202,12.243134 66.920489,17.259633 64.671036,16.856867 62.98984,11.281746 61.547888,6.5 61.547888,6.5 61.22404,12.25 60.973583,16.696923 60.540765,18 59.314172,18 58.002666,18 57.83822,17.196967 58.364076,13.360429 Z M 75,17.563347 C 75,16.311614 78.983587,0.68307985 79.411789,0.25487791 80.962385,-1.2957181 82.783332,1.6388252 84.303652,8.1383511 85.250742,12.187258 86.019867,16.0625 86.012817,16.75 85.99246,18.735296 84.198175,18.199756 83.5,16 83.094401,14.72207 81.986966,14 80.432612,14 78.666667,14 78,14.548108 78,16 78,17.111111 77.333333,18 76.5,18 75.675,18 75,17.803506 75,17.563347 Z M 81.984687,9.75 C 81.976265,8.5125 81.533156,6.825 81,6 80.210229,4.7779161 80.027788,4.9017208 80.015313,6.6682125 80.006891,7.8607294 79.726855,9.5482294 79.393011,10.418213 78.9947,11.456196 79.33849,12 80.393011,12 c 1.004378,0 1.601247,-0.843737 1.591676,-2.25 z m 6.22638,-0.5 C 88.5,0.5 88.5,0.5 91.653936,0.19380621 c 2.363707,-0.22947583 3.553836,0.26474275 4.75,1.97250629 C 99.501428,6.588601 97.76205,13 93.464816,13 91.502346,13 91,13.509516 91,15.5 c 0,1.583665 -0.564071,2.5 -1.538933,2.5 -1.290006,0 -1.492197,-1.415339 -1.25,-8.75 z M 94.5,6.5 C 94.5,3.5116169 94.066432,2.4438925 92.75,2.1903709 91.286057,1.9084413 91,2.612899 91,6.5 c 0,3.887101 0.286057,4.591559 1.75,4.309629 C 94.066432,10.556108 94.5,9.4883831 94.5,6.5 Z m 7.5,4.116631 C 102,3.9563834 101.79427,3.1794625 99.899384,2.6839394 96.425499,1.775498 98.807403,0 103.5,0 c 4.6926,0 7.0745,1.775498 3.60062,2.6839394 C 105.20573,3.1794625 105,3.9563834 105,10.616631 105,16.512959 104.69789,18 103.5,18 102.30211,18 102,16.512959 102,10.616631 Z"
       id="path446"
       inkscape:connector-curvature="0" />
    <path
       style="fill-opacity:1"
       d="M 48.114802,17.367857 C 46.337977,16.12332 46,14.868273 46,9.5147246 46,2.744438 47.446453,0 51.014725,0 53.961742,0 56,3.8969563 56,9.5313766 56,16.861293 52.441154,20.398152 48.114802,17.367857 Z m 5.284265,-4.613191 C 54.136129,9.0693534 53.205853,3.245258 51.734933,2.3361797 50.046778,1.2928421 48,5.0854444 48,9.2568711 48,16.70724 52.079916,19.350421 53.399067,12.754666 Z M 4,10.616631 C 4,4.0742666 3.7721896,3.173689 2,2.710251 -1.900254,1.6903116 -0.02923359,0 5,0 8.7777778,0 10,0.36666667 10,1.5 10,2.325 9.325,3 8.5,3 7.3,3 7,4.5 7,10.5 7,16.5 6.7,18 5.5,18 4.3021062,18 4,16.512959 4,10.616631 Z M 12,9 c 0,-9 0,-9 4,-9 2.888889,0 4,0.41666667 4,1.5 0,1 -1,1.5 -3,1.5 -2.533333,0 -3,0.3888889 -3,2.5 0,2.1111111 0.466667,2.5 3,2.5 1.65,0 3,0.45 3,1 0,0.55 -1.35,1 -3,1 -2.666667,0 -3,0.333333 -3,3 0,2.666667 0.333333,3 3,3 1.65,0 3,0.45 3,1 0,0.55 -1.8,1 -4,1 -4,0 -4,0 -4,-9 z m 10.992156,4.518299 C 24.737025,9.4476845 24.779628,8.7168245 23.456619,5.5504171 21.767092,1.5068103 21.625558,0 22.935272,0 c 0.5144,0 1.506956,1.5809641 2.205681,3.5132534 1.270409,3.5132535 1.270409,3.5132535 2.671682,0 C 28.583335,1.5809641 29.615779,0 30.106954,0 c 1.175257,0 1.02261,1.7247689 -0.531015,6 -1.097545,3.0201998 -1.023444,4.082615 0.540541,7.75 1.431231,3.356092 1.526919,4.25 0.454937,4.25 -0.74663,0 -1.988082,-1.580964 -2.758782,-3.513253 -1.401273,-3.513254 -1.401273,-3.513254 -2.671682,0 C 24.442228,16.419036 23.240663,18 22.470809,18 21.348715,18 21.452125,17.111045 22.992156,13.518299 Z M 33.211067,9.3307006 C 33.405392,3.5000811 33.909301,0.52582977 34.75,0.2473673 35.613516,-0.03865258 36,1.0958486 36,3.9166667 36,7.6055556 36.241497,8 38.5,8 40.75,8 41,7.6 41,4 c 0,-2.2 0.45,-4 1,-4 0.592593,0 1,3.6666667 1,9 0,8.833284 -1.57961,12.620651 -2.189635,5.25 C 40.561062,11.237785 40.057329,10.437131 38.25,10.180449 36.232909,9.8939765 36,10.282159 36,13.930449 36,16.926918 35.594206,18 34.461067,18 c -1.289119,0 -1.492031,-1.40728 -1.25,-8.6692994 z M 58.358152,14.25 c 0.34091,-2.0625 0.624789,-6.1454959 0.630842,-9.0733242 0.0093,-4.47573172 0.282605,-5.2710189 1.716791,-4.99481991 1.091477,0.21019918 2.301838,2.30736721 3.360879,5.82332411 1.648274,5.472179 1.659754,5.483307 2.786232,2.7007167 0.622126,-1.5367568 1.409581,-3.9035086 1.749901,-5.2594484 0.710291,-2.83002695 2.19961,-4.06440275 3.389541,-2.80931601 C 72.442278,1.1117095 72.968905,5.2125 73.16262,9.75 73.425005,15.896015 73.194152,18 72.257414,18 71.409776,18 71,16.316248 71,12.833333 71,7.3280036 70.177874,7.1655725 68.41078,12.32177 66.888174,16.764578 64.94169,16.281645 63.083333,11 61.5,6.5 61.5,6.5 61.200096,12.25 60.968059,16.698813 60.542436,18 59.319254,18 58.048865,18 57.860072,17.263373 58.358152,14.25 Z m 16.98251,2 c 0.261491,-0.9625 1.245826,-5.035094 2.187412,-9.0502097 2.237195,-9.539862 4.140008,-9.4533471 6.635748,0.3017066 C 85.148598,11.350674 85.964601,15.2875 85.977162,16.25 86.008333,18.638507 84.282137,18.464296 83.5,16 83.094401,14.72207 81.986966,14 80.432612,14 78.666667,14 78,14.548108 78,16 c 0,1.149328 -0.666667,2 -1.567388,2 -1.007202,0 -1.397466,-0.625451 -1.09195,-1.75 z m 6.644025,-6.5 C 81.966528,7.0817259 80.050732,3.4588664 80.001658,6 79.985726,6.825 79.701351,8.5125 79.369714,9.75 78.926423,11.404134 79.194869,12 80.383369,12 c 1.014377,0 1.610926,-0.838207 1.601318,-2.25 z m 6.22638,-0.5 C 88.5,0.5 88.5,0.5 91.688441,0.19123274 96.172728,-0.24302362 98.705087,3.5754701 97.409703,8.8182095 96.668886,11.816476 95.989463,12.558744 93.75,12.816422 91.590031,13.064954 91,13.654985 91,15.566422 91,17.090299 90.424728,18 89.461067,18 c -1.290006,0 -1.492197,-1.415339 -1.25,-8.75 z M 94.5,6.5 C 94.5,3.5116169 94.066432,2.4438925 92.75,2.1903709 91.286057,1.9084413 91,2.612899 91,6.5 c 0,3.887101 0.286057,4.591559 1.75,4.309629 C 94.066432,10.556108 94.5,9.4883831 94.5,6.5 Z m 7.5,4.116631 C 102,3.9563834 101.79427,3.1794625 99.899384,2.6839394 96.425499,1.775498 98.807403,0 103.5,0 c 4.6926,0 7.0745,1.775498 3.60062,2.6839394 C 105.20573,3.1794625 105,3.9563834 105,10.616631 105,16.512959 104.69789,18 103.5,18 102.30211,18 102,16.512959 102,10.616631 Z"
       id="path444"
       inkscape:connector-curvature="0" />
    <path
       style="fill-opacity:1"
       d="M 4,10.616631 C 4,3.9563834 3.7942676,3.1794625 1.8993844,2.6839394 -1.5944515,1.7702808 0.81937994,0 5.559017,0 8.8398908,0 10,0.39184204 10,1.5 10,2.325 9.325,3 8.5,3 7.3,3 7,4.5 7,10.5 7,16.5 6.7,18 5.5,18 4.3021062,18 4,16.512959 4,10.616631 Z M 12,9 c 0,-9 0,-9 4,-9 2.888889,0 4,0.41666667 4,1.5 C 20,2.5 19,3 17,3 14.466667,3 14,3.3888889 14,5.5 14,7.6218293 14.462732,8 17.059017,8 18.843718,8 19.860575,8.4165771 19.5,9 19.160081,9.55 17.783524,10 16.440983,10 14.395446,10 14,10.486009 14,13 c 0,2.666667 0.333333,3 3,3 1.65,0 3,0.45 3,1 0,0.55 -1.8,1 -4,1 -4,0 -4,0 -4,-9 z m 10.992156,4.518299 C 24.737025,9.4476845 24.779628,8.7168245 23.456619,5.5504171 21.767092,1.5068103 21.625558,0 22.935272,0 c 0.5144,0 1.506956,1.5809641 2.205681,3.5132534 1.270409,3.5132535 1.270409,3.5132535 2.671682,0 C 28.583335,1.5809641 29.615779,0 30.106954,0 31.374592,0 31.217964,1.5425764 29.543381,5.5504171 28.220372,8.7168245 28.262975,9.4476845 30.007844,13.518299 31.535788,17.082847 31.645103,18 30.542015,18 c -0.762801,0 -1.933892,-1.657368 -2.602424,-3.68304 -1.215513,-3.683041 -1.215513,-3.683041 -2.684506,0 C 24.447139,16.342632 23.175213,18 22.428583,18 21.369072,18 21.492786,17.016188 22.992156,13.518299 Z M 33.211067,9.3307006 C 33.405392,3.5000811 33.909301,0.52582977 34.75,0.2473673 35.613516,-0.03865258 36,1.0958486 36,3.9166667 36,7.6055556 36.241497,8 38.5,8 40.75,8 41,7.6 41,4 c 0,-2.2 0.45,-4 1,-4 0.592593,0 1,3.6666667 1,9 0,5.333333 -0.407407,9 -1,9 -0.55,0 -1,-1.8 -1,-4 0,-3.6 -0.25,-4 -2.5,-4 -2.25,0 -2.5,0.4 -2.5,4 0,2.933864 -0.410178,4 -1.538933,4 -1.289119,0 -1.492031,-1.40728 -1.25,-8.6692994 z M 47.2,16.8 C 46.52704,16.12704 46,12.901108 46,9.4549876 46,3.0469032 47.698932,0 51.272037,0 55.215715,0 57.723624,10.910862 54.964816,16.065741 53.791576,18.257962 49.101469,18.701469 47.2,16.8 Z m 6.325348,-5.138573 C 54.167208,7.3624903 52.798802,2 51.059935,2 c -2.705567,0 -4.136759,9.119418 -2.044681,13.028503 1.570302,2.934135 3.820054,1.254549 4.510094,-3.367076 z M 58.658939,10.25 c 0.277591,-4.2625 0.678766,-8.3125 0.891501,-9 0.826933,-2.6724198 2.421388,-1.01515691 4.077258,4.2378685 0.951444,3.0183277 1.986939,5.2365055 2.3011,4.9292845 0.314161,-0.307222 1.285046,-2.6642625 2.157521,-5.2378688 C 70.661676,-2.4174399 72.416422,-0.96296776 73,9.2521318 73.377185,15.854481 73.192963,18.00374 72.25,18.002132 71.39731,18.000678 71,16.198863 71,12.333333 71,6.202805 70.101751,6.0249007 68.467961,11.831846 67.077612,16.773531 65.001935,16.452869 63.083333,11 61.5,6.5 61.5,6.5 61.200096,12.25 60.988213,16.312401 60.497228,18 59.527211,18 58.437926,18 58.258517,16.398634 58.658939,10.25 Z m 16.732635,6 c 0.289491,-0.9625 1.261561,-5.037456 2.160155,-9.0554588 2.164679,-9.6792202 4.225572,-9.580341 6.604957,0.3168981 C 85.080748,11.355148 85.873519,15.2875 85.918399,16.25 86.030042,18.644284 84.281907,18.463572 83.5,16 83.094401,14.72207 81.986966,14 80.432612,14 78.666667,14 78,14.548108 78,16 c 0,1.149328 -0.666667,2 -1.567388,2 -1.026597,0 -1.385783,-0.603796 -1.041038,-1.75 z m 6.593113,-6.5 C 81.966528,7.0817259 80.050732,3.4588664 80.001658,6 79.985726,6.825 79.701351,8.5125 79.369714,9.75 78.926423,11.404134 79.194869,12 80.383369,12 c 1.014377,0 1.610926,-0.838207 1.601318,-2.25 z m 6.22638,-0.5 C 88.5,0.5 88.5,0.5 91.688441,0.19123274 95.967254,-0.22312562 98.521782,3.4051282 97.560166,8.5309779 97.015967,11.431812 96.363944,12.177211 93.948048,12.66039 91.677011,13.114598 91,13.795412 91,15.625 91,17.096149 90.41433,18 89.461067,18 c -1.290006,0 -1.492197,-1.415339 -1.25,-8.75 z M 94.5,6.5 C 94.5,3.5116169 94.066432,2.4438925 92.75,2.1903709 91.286057,1.9084413 91,2.612899 91,6.5 c 0,3.887101 0.286057,4.591559 1.75,4.309629 C 94.066432,10.556108 94.5,9.4883831 94.5,6.5 Z m 7.5,4.116631 C 102,3.9563834 101.79427,3.1794625 99.899384,2.6839394 96.425499,1.775498 98.807403,0 103.5,0 c 4.6926,0 7.0745,1.775498 3.60062,2.6839394 C 105.20573,3.1794625 105,3.9563834 105,10.616631 105,16.512959 104.69789,18 103.5,18 102.30211,18 102,16.512959 102,10.616631 Z"
       id="path442"
       inkscape:connector-curvature="0" />
    <path
       style="fill-opacity:1"
       d="M 4,10 C 4,2.5902328 3.8480876,2 1.940983,2 0.80852366,2 0.16008131,1.55 0.5,1 1.2621135,-0.23312547 10,-0.34040038 10,0.88336864 10,1.3692214 9.1,2.0020926 8,2.289749 6.2215028,2.7548365 6,3.6537647 6,10.40638 6,14.802127 5.5788737,18 5,18 4.4166667,18 4,14.666667 4,10 Z m 8,-1 c 0,-9 0,-9 4,-9 4.508178,0 5.479582,1.6969106 1.25,2.1835777 C 15.090031,2.4321094 14.432109,3.0900314 14.183578,5.25 13.911127,7.6178417 14.223802,8 16.433578,8 17.84511,8 19,8.45 19,9 c 0,0.55 -1.125,1 -2.5,1 -2.111111,0 -2.5,0.466667 -2.5,3 0,2.666667 0.333333,3 3,3 1.65,0 3,0.45 3,1 0,0.55 -1.8,1 -4,1 -4,0 -4,0 -4,-9 z m 10,8.122124 c 0,-0.482832 0.681039,-2.507832 1.51342,-4.5 1.351227,-3.2339407 1.351227,-4.0103073 0,-7.244248 C 21.765435,1.1943579 21.634187,0 22.922448,0 c 0.507346,0 1.490084,1.6875 2.183862,3.75 1.261414,3.75 1.261414,3.75 2.713248,0 C 28.618067,1.6875 29.660329,0 30.135696,0 31.374729,0 31.207419,1.5678131 29.543381,5.5504171 28.220372,8.7168245 28.262975,9.4476845 30.007844,13.518299 31.478059,16.948173 31.617072,18 30.600159,18 29.869337,18 28.618067,16.3125 27.819558,14.25 26.367724,10.5 26.367724,10.5 25.10631,14.25 23.982142,17.591986 22,19.424694 22,17.122124 Z M 34,8.940983 C 34,3.1562824 34.361443,0.10534994 35,0.5 35.55,0.83991869 36,2.6664763 36,4.559017 36,7.5627322 36.317691,8 38.5,8 40.75,8 41,7.6 41,4 c 0,-2.2 0.45,-4 1,-4 0.592593,0 1,3.6666667 1,9 0,5.333333 -0.407407,9 -1,9 -0.55,0 -1,-1.8 -1,-4 0,-3.6 -0.25,-4 -2.5,-4 -2.25,0 -2.5,0.4 -2.5,4 0,2.2 -0.45,4 -1,4 -0.593075,0 -1,-3.686339 -1,-9.059017 z m 13.035184,7.124758 C 45.244752,12.72029 45.750517,3.535754 47.828741,1.6549876 51.923256,-2.050498 56,1.4430967 56,8.6574066 56,15.307107 54.576084,18 51.059935,18 49.127693,18 47.704252,17.315907 47.035184,16.065741 Z m 6.324345,-2.823748 C 54.495237,9.2820112 53.351102,3.0719609 51.343902,2.3017262 49.192062,1.4759876 48.033309,3.7436552 48.015313,8.8157415 47.987465,16.664235 51.53531,19.602674 53.359529,13.241993 Z M 58.723711,10.25 c 0.232836,-4.2625 0.601129,-8.3125 0.818429,-9 0.842861,-2.6666685 2.428582,-1.01866554 4.089382,4.25 0.953547,3.025 1.994874,5.5 2.314059,5.5 0.319185,0 1.252939,-2.3625 2.075008,-5.25 0.945309,-3.3203745 2.043189,-5.25 2.987042,-5.25 1.187441,0 1.551405,1.7878441 1.781302,8.75 0.183948,5.570668 -0.08857,8.75 -0.75,8.75 C 71.441868,18 71,15.575734 71,12.3 71,6.1619503 69.786255,6.0288294 68.264715,12 c -1.254294,4.922384 -3.292744,4.350951 -5.350892,-1.5 -1.758815,-5 -1.758815,-5 -1.836319,1.25 -0.05632,4.541542 -0.44648,6.25 -1.427318,6.25 -1.053387,0 -1.256846,-1.701938 -0.926475,-7.75 z m 16.679191,6 C 75.698625,15.2875 76.604281,11.622169 77.415471,8.1048193 78.97506,1.3423846 80.392777,-1.059541 81.874642,0.55 82.64842,1.3904465 86,14.854637 86,17.122665 86,18.818399 84.127665,17.977597 83.5,16 83.094401,14.72207 81.986966,14 80.432612,14 78.666667,14 78,14.548108 78,16 c 0,1.149328 -0.666667,2 -1.567388,2 -1.030913,0 -1.383355,-0.598978 -1.02971,-1.75 z m 6.526813,-6.5 C 81.891058,8.5125 81.472686,6.6 81,5.5 c -0.859429,-2 -0.859429,-2 -0.943369,0 -0.04617,1.1 -0.35528,3.0125 -0.686917,4.25 -0.443291,1.654134 -0.174845,2.25 1.013655,2.25 1.030665,0 1.591155,-0.815538 1.546346,-2.25 z m 6.281352,-0.5 C 88.5,0.5 88.5,0.5 91.585175,0.19893464 95.401001,-0.17343096 97.4,1.9927263 97.4,6.5 97.4,10.347665 95.55461,13 92.877555,13 91.541496,13 91,13.721012 91,15.5 c 0,1.583665 -0.564071,2.5 -1.538933,2.5 -1.290006,0 -1.492197,-1.415339 -1.25,-8.75 z M 94.5,6.5 C 94.5,3.5116169 94.066432,2.4438925 92.75,2.1903709 91.286057,1.9084413 91,2.612899 91,6.5 c 0,3.887101 0.286057,4.591559 1.75,4.309629 C 94.066432,10.556108 94.5,9.4883831 94.5,6.5 Z M 102,10 C 102,3.5555556 101.70833,2 100.5,2 99.675,2 99,1.55 99,1 c 0,-1.30452523 8.69376,-1.30452523 9.5,0 0.33992,0.55 -0.30852,1 -1.44098,1 C 105.15191,2 105,2.5902328 105,10 c 0,6.444444 -0.29167,8 -1.5,8 -1.20833,0 -1.5,-1.555556 -1.5,-8 z"
       id="path440"
       inkscape:connector-curvature="0" />
    <path
       style="fill-opacity:1"
       d="M 4,10 C 4,2.5902328 3.8480876,2 1.940983,2 0.80852366,2 0.16008131,1.55 0.5,1 1.2621135,-0.23312547 10,-0.34040038 10,0.88336864 10,1.3692214 9.1,2.0020926 8,2.289749 6.2215028,2.7548365 6,3.6537647 6,10.40638 6,14.802127 5.5788737,18 5,18 4.4166667,18 4,14.666667 4,10 Z M 12.211067,9.25 C 12.5,0.5 12.5,0.5 16.25,0.18963474 20.5218,-0.16391679 21.456379,1.6995805 17.25,2.1835777 15.090031,2.4321094 14.432109,3.0900314 14.183578,5.25 13.911127,7.6178417 14.223802,8 16.433578,8 17.84511,8 19,8.45 19,9 c 0,0.55 -1.125,1 -2.5,1 -2.111111,0 -2.5,0.466667 -2.5,3 0,2.666667 0.333333,3 3,3 1.65,0 3,0.45 3,1 0,0.55 -1.81752,1 -4.038933,1 -4.038933,0 -4.038933,0 -3.75,-8.75 z M 22,17.122124 c 0,-0.482832 0.681039,-2.507832 1.51342,-4.5 1.351227,-3.2339407 1.351227,-4.0103073 0,-7.244248 C 21.765435,1.1943579 21.634187,0 22.922448,0 23.429794,0 24.405477,1.6875 25.090632,3.75 26.336368,7.5 26.336368,7.5 27.639817,4.3265489 28.933018,1.1780479 31,-0.97967157 31,0.81885905 31,1.3341502 30.318961,3.3857079 29.48658,5.377876 c -1.351227,3.2339407 -1.351227,4.0103073 0,7.244248 C 31.214818,16.758379 31.364683,18 30.135696,18 29.660329,18 28.618067,16.3125 27.819558,14.25 26.367724,10.5 26.367724,10.5 25.10631,14.25 23.982142,17.591986 22,19.424694 22,17.122124 Z M 34,8.940983 C 34,3.1562824 34.361443,0.10534994 35,0.5 35.55,0.83991869 36,2.6664763 36,4.559017 36,7.5627322 36.317691,8 38.5,8 40.756058,8 41,7.6039345 41,3.940983 41,1.4896157 41.396069,0.12674994 42,0.5 42.55,0.83991869 43,4.9164763 43,9.559017 43,14.519672 42.587687,18 42,18 c -0.55,0 -1,-1.8 -1,-4 0,-3.6 -0.25,-4 -2.5,-4 -2.25,0 -2.5,0.4 -2.5,4 0,2.2 -0.45,4 -1,4 -0.593075,0 -1,-3.686339 -1,-9.059017 z m 13.035184,7.124758 C 45.244752,12.72029 45.750517,3.535754 47.828741,1.6549876 50.218932,-0.5081055 51.567275,-0.43272454 54,2 c 2.215424,2.2154236 2.729239,8.951756 1.024751,13.4349 -1.231954,3.240285 -6.375677,3.646423 -7.989567,0.630841 z m 6.324345,-2.823748 C 54.495237,9.2820112 53.351102,3.0719609 51.343902,2.3017262 49.192062,1.4759876 48.033309,3.7436552 48.015313,8.8157415 47.987465,16.664235 51.53531,19.602674 53.359529,13.241993 Z M 58.790477,10.25 c 0.181139,-4.2625 0.513261,-8.3125 0.738048,-9 0.867989,-2.6546904 2.439662,-1.02670679 4.102997,4.25 0.953547,3.025 2.04391,5.5 2.423027,5.5 0.379118,0 1.346529,-2.3625 2.149801,-5.25 0.883943,-3.1774803 2.020107,-5.25 2.878073,-5.25 1.093416,0 1.483648,2.0008845 1.70651,8.75 C 72.964251,14.559298 72.688097,18 72.08665,18 71.541482,18 70.961462,15.1875 70.797717,11.75 70.5,5.5 70.5,5.5 68.652724,10.800908 67.636723,13.716408 66.316322,15.938774 65.718501,15.7395 65.12068,15.540227 63.84933,13.154818 62.89328,10.438592 61.155008,5.5 61.155008,5.5 61.077504,11.75 61.02364,16.093659 60.612804,18 59.730567,18 c -0.945043,0 -1.185273,-1.980431 -0.94009,-7.75 z m 16.612425,6 c 0.295723,-0.9625 1.178043,-4.527797 1.96071,-7.9228833 1.61947,-7.0249973 2.370184,-8.582518 3.892183,-8.07518501 C 82.194527,0.56484242 85.844508,13.371067 85.958011,16.75 c 0.06771,2.015676 -1.676731,1.433616 -2.24776,-0.75 -0.345435,-1.320946 -1.364016,-2 -3,-2 -1.635984,0 -2.654565,0.679054 -3,2 -0.287656,1.1 -1.045465,2 -1.684019,2 -0.643884,0 -0.921521,-0.779466 -0.62333,-1.75 z m 6.581785,-7 C 81.96608,5.9083443 80.048271,2.2816794 80.001658,5.5 79.985726,6.6 79.701351,8.5125 79.369714,9.75 78.926423,11.404134 79.194869,12 80.383369,12 c 1.100643,0 1.611744,-0.877731 1.601318,-2.75 z M 88,9.519052 C 88,1.3942159 88.101063,1.0127388 90.406859,0.43402084 93.623103,-0.37320495 96.97294,1.5499016 97.115154,4.2851838 97.422718,10.200686 96.061545,13 92.877555,13 91.541496,13 91,13.721012 91,15.5 91,17.055556 90.433333,18 89.5,18 88.284578,18 88,16.391006 88,9.519052 Z M 94.5,6.5 C 94.5,3.5116169 94.066432,2.4438925 92.75,2.1903709 91.286057,1.9084413 91,2.612899 91,6.5 c 0,3.887101 0.286057,4.591559 1.75,4.309629 C 94.066432,10.556108 94.5,9.4883831 94.5,6.5 Z M 102,10 C 102,3.5555556 101.70833,2 100.5,2 99.675,2 99,1.55 99,1 c 0,-0.55 2.025,-1 4.5,-1 2.475,0 4.5,0.45 4.5,1 0,0.55 -0.675,1 -1.5,1 -1.20833,0 -1.5,1.5555556 -1.5,8 0,6.444444 -0.29167,8 -1.5,8 -1.20833,0 -1.5,-1.555556 -1.5,-8 z"
       id="path438"
       inkscape:connector-curvature="0" />
    <path
       style="fill-opacity:1"
       d="M 4,10.069551 C 4,2.6404538 3.8577581,2.1117049 1.75,1.705733 0.5125,1.4673801 1.975,1.239606 5,1.1995684 9.2221588,1.1436856 9.9772468,1.3368937 8.25,2.0311621 6.1958573,2.8568266 6,3.5912142 6,10.467776 6,14.822592 5.5781581,18 5,18 4.4173975,18 4,14.68985 4,10.069551 Z M 12,9.5 C 12,1 12,1 16.25,1.1600371 c 3.684103,0.1387278 3.817255,0.2137402 1,0.5633585 C 14.412698,2.0755016 14,2.4996237 14,5.0633585 14,7.5291094 14.400875,8 16.5,8 17.875,8 19,8.45 19,9 c 0,0.55 -1.125,1 -2.5,1 -2.111111,0 -2.5,0.466667 -2.5,3 0,2.666667 0.333333,3 3,3 1.65,0 3,0.45 3,1 0,0.55 -1.8,1 -4,1 -4,0 -4,0 -4,-8.5 z m 10,7.622124 c 0,-0.482832 0.666942,-2.474093 1.482094,-4.425026 1.296106,-3.1020193 1.301673,-4.0585149 0.04436,-7.6221235 -1.698476,-4.81399304 -0.132255,-5.54557108 1.789502,-0.8358722 1.321692,3.2391024 1.321692,3.2391024 2.450849,0 C 28.38784,2.457596 29.36937,1 29.94798,1 c 1.346105,0 1.338789,0.069417 -0.4614,4.377876 -1.351227,3.2339407 -1.351227,4.0103073 0,7.244248 C 31.214818,16.758379 31.364683,18 30.135696,18 29.660329,18 28.618067,16.3125 27.819558,14.25 26.367724,10.5 26.367724,10.5 25.10631,14.25 23.982142,17.591986 22,19.424694 22,17.122124 Z M 34,9.5 C 34,4.5 34.411765,1 35,1 35.55,1 36,2.575 36,4.5 36,7.5666667 36.309524,8 38.5,8 40.690476,8 41,7.5666667 41,4.5 41,2.575 41.45,1 42,1 c 0.588235,0 1,3.5 1,8.5 0,5 -0.411765,8.5 -1,8.5 -0.55,0 -1,-1.8 -1,-4 0,-3.6 -0.25,-4 -2.5,-4 -2.25,0 -2.5,0.4 -2.5,4 0,2.2 -0.45,4 -1,4 -0.588235,0 -1,-3.5 -1,-8.5 z m 13.035184,6.565741 c -1.721376,-3.21642 -1.26076,-11.565599 0.77689,-14.08199 5.00639,-6.1826292 10.865058,5.0464785 7.027411,13.469196 -1.450883,3.184342 -6.227332,3.559389 -7.804301,0.612794 z M 53.024751,14.4349 C 55.023719,9.1772144 53.607921,2 50.571805,2 48.734951,2 48,4.2523967 48,9.8817875 48,16.58738 51.128553,19.422278 53.024751,14.4349 Z m 5.800391,-4.9914188 c 0.275918,-7.2650723 0.571412,-8.51376013 1.951819,-8.2479181 0.949761,0.1829072 2.239953,2.2880677 3.100425,5.058853 C 64.687948,8.8644873 65.643124,11 66,11 c 0.356876,0 1.312669,-2.1375 2.123985,-4.75 0.87123,-2.8054242 2.068911,-4.75 2.925568,-4.75 1.126585,0 1.515298,1.8420968 1.740889,8.25 C 72.966048,14.738074 72.688376,18 72.08816,18 71.542161,18 70.961462,15.1875 70.797717,11.75 70.5,5.5 70.5,5.5 68.652724,10.800908 67.631564,13.731212 66.294842,15.931614 65.663681,15.721227 65.035709,15.511903 63.841983,13.126494 63.010957,10.420319 61.5,5.5 61.5,5.5 61.202283,11.75 c -0.192172,4.03426 -0.723949,6.250828 -1.5,6.252334 -0.868201,0.0017 -1.111935,-2.376588 -0.877141,-8.5588528 z M 75.448864,16.75 c 0.212351,-0.6875 1.146702,-4.5125 2.076334,-8.5 C 78.781985,2.8592237 79.638923,1 80.866808,1 c 1.243307,0 2.081678,1.915064 3.392771,7.75 0.957771,4.2625 1.741182,8.0875 1.740912,8.5 -0.0011,1.616901 -1.796837,0.636775 -2.29024,-1.25 -0.345435,-1.320946 -1.364016,-2 -3,-2 -1.635984,0 -2.654565,0.679054 -3,2 -0.287656,1.1 -1.001017,2 -1.585247,2 -0.584229,0 -0.888492,-0.5625 -0.67614,-1.25 z m 7.103274,-6 c -0.211801,-0.6875 -0.712283,-2.6 -1.112183,-4.25 -0.72709,-3 -0.72709,-3 -1.483843,-0.5 -1.340231,4.427575 -1.074883,6 1.012503,6 1.113608,0 1.801362,-0.542899 1.583523,-1.25 z M 88,9.519052 C 88,1.3942159 88.101063,1.0127388 90.406859,0.43402084 94.620187,-0.62345715 97,1.5065843 97,6.3351838 97,10.909069 95.682348,13 92.8,13 91.546667,13 91,13.759259 91,15.5 91,17.055556 90.433333,18 89.5,18 88.284578,18 88,16.391006 88,9.519052 Z M 94.5,6.5 C 94.5,3.5116169 94.066432,2.4438925 92.75,2.1903709 91.286057,1.9084413 91,2.612899 91,6.5 c 0,3.887101 0.286057,4.591559 1.75,4.309629 C 94.066432,10.556108 94.5,9.4883831 94.5,6.5 Z m 7.5,3.573324 c 0,-6.70833 -0.26898,-7.9969671 -1.75,-8.3839985 -0.9625,-0.2515275 0.5,-0.4573228 3.25,-0.4573228 2.75,0 4.2125,0.2057953 3.25,0.4573228 C 105.26898,2.0763569 105,3.364994 105,10.073324 105,16.452592 104.70718,18 103.5,18 102.29282,18 102,16.452592 102,10.073324 Z"
       id="path436"
       inkscape:connector-curvature="0" />
    <path
       style="fill-opacity:1"
       d="M 4,10.069551 C 4,2.6404538 3.8577581,2.1117049 1.75,1.705733 0.5125,1.4673801 1.975,1.239606 5,1.1995684 9.2221588,1.1436856 9.9772468,1.3368937 8.25,2.0311621 6.1958573,2.8568266 6,3.5912142 6,10.467776 6,14.822592 5.5781581,18 5,18 4.4173975,18 4,14.68985 4,10.069551 Z M 12,9.5 C 12,1 12,1 16.25,1.1600371 c 3.684103,0.1387278 3.817255,0.2137402 1,0.5633585 C 14.412698,2.0755016 14,2.4996237 14,5.0633585 14,7.5291094 14.400875,8 16.5,8 17.875,8 19,8.45 19,9 c 0,0.55 -1.125,1 -2.5,1 -2.111111,0 -2.5,0.466667 -2.5,3 0,2.666667 0.333333,3 3,3 1.65,0 3,0.45 3,1 0,0.55 -1.8,1 -4,1 -4,0 -4,0 -4,-8.5 z m 10,8.125727 c 0,-0.205851 0.655038,-2.230851 1.455641,-4.5 C 24.715655,9.5544653 24.721617,8.4624314 23.5,5 21.818768,0.23488028 23.41001,-0.43185889 25.315955,4.2391023 c 1.321692,3.2391024 1.321692,3.2391024 2.450849,0 C 28.38784,2.457596 29.349408,1 29.903622,1 30.510142,1 30.338934,2.6222082 29.473547,5.0749745 28.216233,8.6385831 28.2218,9.5950787 29.517906,12.697098 31.191955,16.70366 31.358916,18 30.200888,18 29.761377,18 28.779649,16.3125 28.019271,14.25 26.636765,10.5 26.636765,10.5 25.182686,14.25 24.382943,16.3125 23.339671,18 22.864304,18 22.388937,18 22,17.831577 22,17.625727 Z M 34,9.5 C 34,4.5 34.411765,1 35,1 35.55,1 36,2.575 36,4.5 36,7.5666667 36.309524,8 38.5,8 40.690476,8 41,7.5666667 41,4.5 41,2.575 41.45,1 42,1 c 0.588235,0 1,3.5 1,8.5 0,5 -0.411765,8.5 -1,8.5 -0.55,0 -1,-1.8 -1,-4 0,-3.6 -0.25,-4 -2.5,-4 -2.25,0 -2.5,0.4 -2.5,4 0,2.2 -0.45,4 -1,4 -0.588235,0 -1,-3.5 -1,-8.5 z m 13.035184,6.565741 C 45.188701,12.615557 45.763445,4.2365551 48,2 50.353342,-0.35334249 51.018621,-0.43808724 53.410383,1.3108123 55.744291,3.0174074 56.672084,10.963232 55.006864,14.983428 54.031294,17.338662 53.133966,18 50.913863,18 49.126038,18 47.686047,17.281891 47.035184,16.065741 Z m 5.929632,-1 C 55.237184,10.819783 53.621827,2 50.571805,2 48.734951,2 48,4.2523967 48,9.8817875 c 0,6.3567545 2.782356,9.2619185 4.964816,5.1839535 z M 59,9.4266758 c 0,-7.5421351 0.20517,-8.53381204 1.705785,-8.2448199 1.091477,0.2101992 2.301838,2.3073672 3.360879,5.8233241 1.648274,5.472179 1.659754,5.483307 2.786232,2.7007167 C 67.475022,8.1691399 68.262477,5.8023881 68.602797,4.4464483 69.376574,1.3634721 70.95213,0.31516051 72.096491,2.1218847 73.282846,3.994911 73.239826,18 72.047717,18 c -0.523755,0 -1.086255,-2.8125 -1.25,-6.25 C 70.5,5.5 70.5,5.5 68.669633,10.75 67.662932,13.6375 66.461597,16 66,16 65.538403,16 64.337068,13.6375 63.330367,10.75 61.5,5.5 61.5,5.5 61.202283,11.75 60.754917,21.141573 59,19.290202 59,9.4266758 Z M 77.164999,9.7956422 C 78.21571,5.2832454 79.264014,1.402653 79.494563,1.1721036 80.892995,-0.2263279 82.807042,2.5849931 83.904173,7.6488664 84.601407,10.86699 85.406984,14.5125 85.694343,15.75 86.414117,18.849667 84.369111,18.60679 83.589356,15.5 83.180969,13.872858 82.26162,13 80.956197,13 79.736918,13 78.577815,13.980231 78,15.5 75.892136,21.044103 75.37246,17.493905 77.164999,9.7956422 Z M 82.567388,10 c -1.972623,-6.95335 -1.84492,-6.7601639 -2.64414,-4 -1.316329,4.546039 -1.039073,6 1.14414,6 1.58985,0 1.936329,-0.461972 1.5,-2 z M 89,9.4686152 C 89,0.11019744 89.896723,-1.2793473 94.56377,0.84710164 96.598331,1.7741099 97,2.6696112 97,6.2785612 97,10.905302 95.691094,13 92.8,13 91.546667,13 91,13.759259 91,15.5 91,16.875 90.55,18 90,18 89.411476,18 89,14.489538 89,9.4686152 Z M 94.5,6.5 C 94.5,3.5116169 94.066432,2.4438925 92.75,2.1903709 91.286057,1.9084413 91,2.612899 91,6.5 c 0,3.887101 0.286057,4.591559 1.75,4.309629 C 94.066432,10.556108 94.5,9.4883831 94.5,6.5 Z m 8.5,3.967776 c 0,-6.8765618 -0.19586,-7.6109494 -2.25,-8.4366139 -1.773116,-0.7127056 -1.190258,-0.8932378 2.75,-0.8517744 2.75,0.028938 4.2125,0.2584103 3.25,0.5099378 C 105.26898,2.0763569 105,3.364994 105,10.073324 105,14.691108 104.58256,18 104,18 c -0.57816,0 -1,-3.177408 -1,-7.532224 z"
       id="path434"
       inkscape:connector-curvature="0" />
    <path
       style="fill-opacity:1"
       d="M 4,10.073324 C 4,3.364994 3.7310216,2.0763569 2.25,1.6893255 1.2875,1.437798 2.75,1.241084 5.5,1.2521834 8.25,1.2632828 9.4875,1.4673801 8.25,1.705733 6.1422419,2.1117049 6,2.6404538 6,10.069551 6,14.68985 5.5826025,18 5,18 4.4174375,18 4,14.691108 4,10.073324 Z M 12,9.5 C 12,1 12,1 16.25,1.1600371 c 3.684103,0.1387278 3.817255,0.2137402 1,0.5633585 C 14.412698,2.0755016 14,2.4996237 14,5.0633585 14,7.5291094 14.400875,8 16.5,8 17.875,8 19,8.45 19,9 c 0,0.55 -1.125,1 -2.5,1 -2.111111,0 -2.5,0.466667 -2.5,3 0,2.666667 0.333333,3 3,3 1.65,0 3,0.45 3,1 0,0.55 -1.8,1 -4,1 -4,0 -4,0 -4,-8.5 z m 10,8.020236 c 0,-0.26387 0.723861,-2.28887 1.60858,-4.5 C 25.084325,9.3319862 25.084993,8.6696849 23.616677,5 22.726428,2.7750483 22.45509,1 23.005229,1 c 0.543969,0 1.575046,1.4361521 2.291282,3.1914492 1.302247,3.1914491 1.302247,3.1914491 2.624188,0 C 29.832488,-0.42401681 31.171784,0.26165942 29.5,5 c -1.22314,3.466748 -1.215803,4.5540474 0.05504,8.155989 0.806475,2.285794 1.236514,4.385794 0.955641,4.666667 -0.624888,0.624888 -0.69352,0.526043 -2.643502,-3.807239 -1.568066,-3.484583 -1.568066,-3.484583 -2.918509,0.25 C 24.205922,16.319438 23.238623,18 22.799112,18 22.3596,18 22,17.784106 22,17.520236 Z M 34,9.5 C 34,4.5 34.411765,1 35,1 35.55,1 36,2.575 36,4.5 36,7.5666667 36.309524,8 38.5,8 40.690476,8 41,7.5666667 41,4.5 41,2.575 41.45,1 42,1 c 0.588235,0 1,3.5 1,8.5 0,5 -0.411765,8.5 -1,8.5 -0.55,0 -1,-1.8 -1,-4 0,-3.6 -0.25,-4 -2.5,-4 -2.25,0 -2.5,0.4 -2.5,4 0,2.2 -0.45,4 -1,4 -0.588235,0 -1,-3.5 -1,-8.5 z m 13.035184,6.565741 C 45.188701,12.615557 45.763445,4.2365551 48,2 c 2.358547,-2.35854715 3.016859,-2.43937557 5.439532,-0.6678734 2.624359,1.9189775 3.354808,10.8066114 1.163082,14.1516094 -1.998719,3.050431 -6.078445,3.364199 -7.56743,0.582005 z m 5.929632,-1 C 55.237184,10.819783 53.621827,2 50.571805,2 48.734951,2 48,4.2523967 48,9.8817875 c 0,6.3567545 2.782356,9.2619185 4.964816,5.1839535 z M 59,9.6266758 c 0,-7.5743382 0.222713,-8.72913778 1.629657,-8.45 C 61.615544,1.3722761 62.942299,3.6726853 63.988244,7 c 1.802089,5.732727 1.898084,5.700728 4.331052,-1.4437147 2.60432,-7.6476203 4.64272,-4.94242787 4.667049,6.1937147 0.0075,3.4375 -0.414872,6.25 -0.938628,6.25 -0.523755,0 -1.086255,-2.8125 -1.25,-6.25 C 70.5,5.5 70.5,5.5 68.669633,10.75 67.662932,13.6375 66.461597,16 66,16 65.538403,16 64.337068,13.6375 63.330367,10.75 61.5,5.5 61.5,5.5 61.192716,11 60.671635,20.326726 59,19.279761 59,9.6266758 Z M 77.231905,9.75 c 1.072439,-4.5375 2.114578,-8.4180924 2.315864,-8.6235386 1.366876,-1.39512675 3.33299,1.5798105 4.319322,6.5355879 C 84.506141,10.872922 85.299959,14.5125 85.631131,15.75 85.963967,16.993715 85.782347,18 85.225039,18 84.670517,18 83.934459,16.875 83.589356,15.5 83.180969,13.872858 82.26162,13 80.956197,13 79.736918,13 78.577815,13.980231 78,15.5 77.477226,16.875 76.651817,18 76.165758,18 75.6797,18 76.159466,14.2875 77.231905,9.75 Z M 82.567388,10 c -1.972623,-6.95335 -1.84492,-6.7601639 -2.64414,-4 -1.316329,4.546039 -1.039073,6 1.14414,6 1.58985,0 1.936329,-0.461972 1.5,-2 z M 89.149832,9.8569888 C 88.985892,0.40014605 89.72228,-0.81648595 94.508684,1.0033016 96.63372,1.811239 97,2.5863344 97,6.2752492 97,11.098448 95.689768,13 92.366422,13 90.69745,13 90.027539,13.695147 89.716254,15.75 89.48713,17.2625 89.23224,14.610645 89.149832,9.8569888 Z M 94.5,6.5 C 94.5,3.1132003 94.155075,2.4510128 92.25,2.180449 90.194084,1.8884624 90,2.2610644 90,6.5 c 0,4.238936 0.194084,4.611538 2.25,4.319551 C 94.155075,10.548987 94.5,9.8867997 94.5,6.5 Z m 8.68338,4.217776 C 103.01725,3.667795 102.78829,2.850456 100.75,2.0311621 98.964097,1.3133167 99.531326,1.1281956 103.5,1.1336716 c 3.42831,0.00473 4.37132,0.250829 3,0.7829113 -1.69091,0.6560841 -2.08757,1.9974843 -2.56662,8.6797151 -0.56662,7.903702 -0.56662,7.903702 -0.75,0.121478 z"
       id="path432"
       inkscape:connector-curvature="0" />
    <path
       style="fill-opacity:1"
       d="M 4,10.073324 C 4,3.364994 3.7310216,2.0763569 2.25,1.6893255 1.2875,1.437798 2.75,1.241084 5.5,1.2521834 8.25,1.2632828 9.4875,1.4673801 8.25,1.705733 6.1422419,2.1117049 6,2.6404538 6,10.069551 6,14.68985 5.5826025,18 5,18 4.4174375,18 4,14.691108 4,10.073324 Z M 12,9.5 C 12,1 12,1 16.25,1.1600371 c 3.684103,0.1387278 3.817255,0.2137402 1,0.5633585 C 14.412698,2.0755016 14,2.4996237 14,5.0633585 14,7.5291094 14.400875,8 16.5,8 17.875,8 19,8.45 19,9 c 0,0.55 -1.153511,1 -2.563358,1 -2.288985,0 -2.529818,0.347402 -2.25,3.245626 0.260214,2.695188 0.822138,3.353497 3.313358,3.881685 2.689179,0.570159 2.559671,0.648318 -1.25,0.754374 C 12,18 12,18 12,9.5 Z m 10,8.020236 c 0,-0.26387 0.723861,-2.28887 1.60858,-4.5 C 25.084325,9.3319862 25.084993,8.6696849 23.616677,5 22.736411,2.8 22.407956,1 22.886777,1 c 0.47882,0 1.459023,1.4206222 2.178229,3.1569383 1.307647,3.1569383 1.307647,3.1569383 2.802747,0 2.16545,-4.57239669 3.40624,-3.88218623 1.51557,0.8430617 -1.473361,3.6822921 -1.469394,4.327622 0.04994,8.12482 0.907734,2.268652 1.406595,4.368652 1.108579,4.666667 -0.658755,0.658756 -0.71425,0.580409 -2.674671,-3.77607 -1.568066,-3.484583 -1.568066,-3.484583 -2.918509,0.25 C 24.205922,16.319438 23.238623,18 22.799112,18 22.3596,18 22,17.784106 22,17.520236 Z M 34,9.5 c 0,-5 0.411765,-8.5 1,-8.5 0.55,0 1,1.8312979 1,4.069551 0,3.6482901 0.232909,4.0364725 2.25,3.75 C 40.057329,8.5628693 40.561062,7.7622152 40.810365,4.75 41.403305,-2.4142197 43,1.0495087 43,9.5 c 0,5 -0.411765,8.5 -1,8.5 -0.55,0 -1,-1.8 -1,-4 0,-3.6 -0.25,-4 -2.5,-4 -2.25,0 -2.5,0.4 -2.5,4 0,2.2 -0.45,4 -1,4 -0.588235,0 -1,-3.5 -1,-8.5 z m 13.035184,6.565741 C 46.465833,15.001899 46,12.047316 46,9.5 46,3.265835 47.348821,1 51.059935,1 c 2.337151,0 3.221393,0.6001343 4.051867,2.75 1.271111,3.2905517 0.629431,10.651943 -1.111348,12.749453 -1.754833,2.114445 -5.734148,1.866662 -6.96527,-0.433712 z m 5.929632,-1 C 55.177671,10.930985 53.828045,2 50.990357,2 48.739158,2 48,3.9482234 48,9.8817875 c 0,6.3567545 2.782356,9.2619185 4.964816,5.1839535 z M 59.206156,10.041 c 0.357636,-10.1992684 1.921872,-11.4829978 4.40263,-3.6131274 0.961846,3.0513254 2.005851,5.2965014 2.320012,4.9892804 0.314161,-0.307222 1.275801,-2.636629 2.136978,-5.176461 1.90273,-5.61163589 3.45456,-6.38901189 4.301411,-2.1547545 C 73.350082,9.0004108 73.112586,18 72,18 71.44086,18 71,15.266667 71,11.8 71,5.0782522 70.030713,5.0613748 68.128437,11.75 67.463641,14.0875 66.523946,16 66.040225,16 65.556505,16 64.344974,13.6375 63.347935,10.75 61.535136,5.5 61.535136,5.5 61.011963,11.172272 60.186675,20.120089 58.881408,19.302387 59.206156,10.041 Z m 16.123229,7.209 c 0.24608,-0.4125 1.222992,-4.260798 2.170916,-8.5517742 C 79.757457,-1.5192627 81.597907,-1.4352386 84.11031,9 c 2.141354,8.894085 2.152642,9 0.959241,9 -0.511747,0 -1.074247,-1.0125 -1.25,-2.25 C 83.337665,12.356975 79.280016,12.133304 78.026363,15.43066 77.489089,16.843797 76.561806,18 75.965734,18 c -0.596072,0 -0.88243,-0.3375 -0.636349,-0.75 z m 7.106144,-8 C 81.283454,3.9922178 80.777393,3.3272892 79.962032,6 c -1.358493,4.453072 -1.085971,6 1.05702,6 1.682014,0 1.918465,-0.459054 1.416477,-2.75 z m 6.714303,0.4396347 C 89,0.87926948 89,0.87926948 92.75,1.1896347 96.401301,1.4918313 96.508188,1.6138041 96.811109,5.823905 97.165147,10.744454 95.792497,13 92.443978,13 90.6904,13 90.032343,13.663431 89.716254,15.75 89.48713,17.2625 89.23224,14.535336 89.149832,9.6896347 Z m 6.06451,-1.0305579 C 95.880279,5.1754474 94.362855,2 92.032224,2 90.290329,2 90,2.6428817 90,6.5 c 0,4.074639 0.225292,4.5 2.383423,4.5 1.705019,0 2.510795,-0.666307 2.830919,-2.3409232 z m 7.969038,2.0586992 C 103.01725,3.667795 102.78829,2.850456 100.75,2.0311621 98.964097,1.3133167 99.531326,1.1281956 103.5,1.1336716 c 3.42831,0.00473 4.37132,0.250829 3,0.7829113 -1.69091,0.6560841 -2.08757,1.9974843 -2.56662,8.6797151 -0.56662,7.903702 -0.56662,7.903702 -0.75,0.121478 z"
       id="path430"
       inkscape:connector-curvature="0" />
    <path
       style="fill-opacity:1"
       d="M 4,10.073324 C 4,3.364994 3.7310216,2.0763569 2.25,1.6893255 1.2875,1.437798 2.75,1.241084 5.5,1.2521834 8.25,1.2632828 9.4875,1.4673801 8.25,1.705733 6.1422419,2.1117049 6,2.6404538 6,10.069551 6,14.68985 5.5826025,18 5,18 4.4174375,18 4,14.691108 4,10.073324 Z M 12,9.5 C 12,1 12,1 16.25,1.1600371 c 3.684103,0.1387278 3.817255,0.2137402 1,0.5633585 C 14.412698,2.0755016 14,2.4996237 14,5.0633585 14,7.5291094 14.400875,8 16.5,8 17.875,8 19,8.45 19,9 c 0,0.55 -1.125,1 -2.5,1 -2.181697,0 -2.5,0.437557 -2.5,3.436642 0,3.127837 0.292033,3.472882 3.25,3.839962 2.817255,0.349619 2.684103,0.424631 -1,0.563359 C 12,18 12,18 12,9.5 Z m 10,8.020236 c 0,-0.26387 0.73365,-2.313335 1.630334,-4.554368 1.48311,-3.7066585 1.490375,-4.4309037 0.08044,-8.0202362 C 21.844846,0.19542988 22.986159,-0.32639722 25.232228,4.25 26.827309,7.5 26.827309,7.5 28.01148,4.25 28.662773,2.4625 29.597985,1 30.089728,1 c 0.491743,0 0.173861,1.8 -0.706405,4 -1.473361,3.6822921 -1.469394,4.327622 0.04994,8.12482 2.118592,5.294884 1.138255,6.451902 -1.083455,1.27872 C 26.673371,10.5 26.673371,10.5 25.086686,14.244902 23.753947,17.390438 22,19.25158 22,17.520236 Z M 34,9.5 c 0,-5 0.411765,-8.5 1,-8.5 0.55,0 1,1.8312979 1,4.069551 0,3.6482901 0.232909,4.0364725 2.25,3.75 C 40.057329,8.5628693 40.561062,7.7622152 40.810365,4.75 41.403305,-2.4142197 43,1.0495087 43,9.5 c 0,5 -0.411765,8.5 -1,8.5 -0.55,0 -1,-1.8 -1,-4 0,-3.6 -0.25,-4 -2.5,-4 -2.25,0 -2.5,0.4 -2.5,4 0,2.2 -0.45,4 -1,4 -0.588235,0 -1,-3.5 -1,-8.5 z m 13.000485,6.001276 C 45.700347,12.081653 45.718812,5.3939211 47.035184,2.9342585 48.135879,0.8775916 53.388815,0.2020641 54.485276,1.9761767 55.856843,4.195418 56.042049,12.593434 54.772499,15 c -1.936037,3.669959 -6.456434,3.961513 -7.772014,0.501276 z m 5.964331,-0.435535 C 54.211058,12.737117 54.308064,5.0344398 53.11486,3.1516069 52.644877,2.4099906 51.414268,1.9640381 50.380173,2.1606013 47.090751,2.7858623 47.190077,17 50.483868,17 c 0.795171,0 1.911597,-0.870416 2.480948,-1.934259 z m 6.105469,-3.733954 C 58.955339,-0.39133151 60.832425,-2.3797578 63.631522,6.5 64.585069,9.525 65.667964,12 66.037955,12 66.407946,12 67.338266,9.6734438 68.105333,6.8298752 68.8724,3.9863066 70.000869,1.4943501 70.613043,1.2921943 71.893267,0.86943029 72.972898,6.3030504 72.988994,13.25 c 0.01698,7.328207 -1.859635,5.616985 -2.193304,-2 C 70.5,4.5 70.5,4.5 68.567378,10.25 67.504436,13.4125 66.304436,16 65.900711,16 65.496987,16 64.264693,13.4125 63.162281,10.25 61.157895,4.5 61.157895,4.5 61.008662,9.5 c -0.252529,8.460923 -1.858496,9.97858 -1.938377,1.831787 z M 76.093563,17 c -0.06556,-0.825 0.647718,-4.778905 1.585058,-8.7864565 2.2343,-9.552633 3.994247,-9.3374295 6.431689,0.7864565 2.141354,8.894085 2.152642,9 0.959241,9 -0.511747,0 -1.074247,-1.0125 -1.25,-2.25 -0.221198,-1.557482 -1.101542,-2.341174 -2.860252,-2.546226 -1.98726,-0.231699 -2.780951,0.312877 -3.64362,2.5 C 76.709074,17.241698 76.159122,17.825 76.093563,17 Z m 6.56677,-6.75 C 82.399389,9.2875 81.854459,7.15 81.449377,5.5 80.712865,2.5 80.712865,2.5 79.956112,5 c -1.454369,4.8046403 -1.105847,7 1.111276,7 1.483014,0 1.93328,-0.49466 1.592945,-1.75 z M 89.149832,9.6896347 C 89,0.87926948 89,0.87926948 92.75,1.1896347 96.401301,1.4918313 96.508188,1.6138041 96.811109,5.823905 97.165147,10.744454 95.792497,13 92.443978,13 90.6904,13 90.032343,13.663431 89.716254,15.75 89.48713,17.2625 89.23224,14.535336 89.149832,9.6896347 Z M 95.355465,8.7198514 C 96.317948,4.8850115 95.041948,2 92.383369,2 90.225302,2 90,2.4253893 90,6.5 c 0,4.078939 0.223779,4.5 2.391592,4.5 1.65555,0 2.567719,-0.701744 2.963873,-2.2801486 z m 7.848085,1.5996996 C 103.01414,2.7072955 102.84372,2.1090012 100.75,1.705733 c -1.2375,-0.2383529 0,-0.4333689 2.75,-0.4333689 2.75,0 4.00523,0.1926925 2.7894,0.4282055 -2.03125,0.3934644 -2.23784,1.0923194 -2.54645,8.6138184 -0.33586,8.185612 -0.33586,8.185612 -0.5394,0.0052 z"
       id="path428"
       inkscape:connector-curvature="0" />
    <path
       style="fill-opacity:1"
       d="M 5.2035453,10.717776 C 5.0194015,3.6773349 4.7855353,2.8493473 2.75,2.0311621 0.98272075,1.3208026 1.5727128,1.1423904 5.5,1.1995684 8.25,1.239606 9.5052309,1.4650566 8.289402,1.7005696 6.2581539,2.094034 6.0515553,2.792889 5.7429473,10.314388 5.4070907,18.5 5.4070907,18.5 5.2035453,10.717776 Z M 12,9.5 C 12,1 12,1 16.25,1.1600371 c 3.684103,0.1387278 3.817255,0.2137402 1,0.5633585 C 14.412698,2.0755016 14,2.4996237 14,5.0633585 14,7.5291094 14.400875,8 16.5,8 17.875,8 19,8.45 19,9 c 0,0.55 -1.125,1 -2.5,1 -2.181697,0 -2.5,0.437557 -2.5,3.436642 0,3.127837 0.292033,3.472882 3.25,3.839962 2.817255,0.349619 2.684103,0.424631 -1,0.563359 C 12,18 12,18 12,9.5 Z M 22.372202,17 C 25.21308,8.4404742 25.212642,8.4446875 23.648816,4.7019247 22.798097,2.6658661 22.48507,1 22.953202,1 c 0.468131,0 1.32176,1.35 1.896953,3 0.575193,1.65 1.317624,3 1.649845,3 0.332221,0 1.074652,-1.35 1.649845,-3 0.575193,-1.65 1.415584,-3 1.867535,-3 0.451951,0 0.12428,1.7755343 -0.728159,3.9456318 -1.414789,3.6017034 -1.404129,4.3099187 0.122292,8.1248202 0.919699,2.298554 1.434256,4.417113 1.14346,4.707909 -0.290796,0.290795 -1.223246,-1.133515 -2.07211,-3.165134 C 27.054994,11.195856 25,10.461068 25,13.367887 25,14.055307 24.29673,15.491249 23.437179,16.55887 22.49228,17.732498 22.0712,17.906916 22.372202,17 Z M 34.316613,9.5 c -0.02091,-5.7375548 0.187628,-7.5500244 0.575292,-5 0.522919,3.4397208 0.993287,4.0443212 3.358095,4.3164223 2.601029,0.2992814 2.75,0.096139 2.75,-3.75 C 41,2.8298901 41.45,1 42,1 c 0.588235,0 1,3.5 1,8.5 0,5 -0.411765,8.5 -1,8.5 -0.55,0 -1,-1.8 -1,-4 0,-3.760408 -0.17625,-4 -2.942502,-4 -2.735055,0 -2.969489,0.299626 -3.325293,4.25 -0.210535,2.3375 -0.397551,0.2 -0.415592,-4.75 z m 13.240091,6.277494 C 45.797192,13.265438 45.517849,7.3983526 46.975249,3.5650997 47.717637,1.6124727 48.654205,1 50.897697,1 53.389501,1 54.026704,1.5508841 55.021511,4.5651793 56.247,8.278446 55.612991,14.541632 53.788069,16.75 52.188732,18.685384 49.274956,18.230642 47.556704,15.777494 Z M 52.8,15.8 C 54.170544,14.429456 54.400775,5.1807349 53.11486,3.1516069 52.644877,2.4099906 51.414268,1.9640381 50.380173,2.1606013 48.897464,2.4424379 48.433982,3.5590672 48.187705,7.4427239 47.658529,15.787573 49.49138,19.10862 52.8,15.8 Z M 59.113335,12 C 58.955056,0.04057828 60.863181,-2.2821875 63.631522,6.5 64.585069,9.525 65.650884,12 66,12 66.349116,12 67.414931,9.525 68.368478,6.5 69.322025,3.475 70.468039,1 70.915176,1 71.848817,1 73,8.3657487 73,14.339571 73,20.651583 71.156964,17.427816 70.804907,10.5 70.5,4.5 70.5,4.5 68.567378,10.25 67.504436,13.4125 66.304436,16 65.900711,16 65.496987,16 64.264693,13.4125 63.162281,10.25 61.157895,4.5 61.157895,4.5 60.979267,9 c -0.316966,7.985059 -1.769059,10.319696 -1.865932,3 z m 16.993046,5.278421 C 75.827191,14.072462 79.42526,1 80.586859,1 c 1.318494,0 1.623242,0.7025427 3.253339,7.5 2.035997,8.490045 2.168716,9.5 1.248405,9.5 -0.522226,0 -1.093299,-1.0125 -1.269052,-2.25 -0.221198,-1.557482 -1.101542,-2.341174 -2.860252,-2.546226 -1.98726,-0.231699 -2.780951,0.312877 -3.64362,2.5 -0.606605,1.537924 -1.150789,2.246515 -1.209298,1.574647 z M 82.994423,11.25 C 82.991356,10.8375 82.46895,8.7 81.833522,6.5 80.740351,2.7151905 80.638419,2.634494 79.938779,5 78.524263,9.7825271 78.860438,12 81,12 c 1.1,0 1.99749,-0.3375 1.994423,-0.75 z m 6.155409,-1.5 C 89,1 89,1 92.480948,1 c 3.829984,0 4.986959,2.0304778 4.347134,7.6291708 -0.256615,2.2454652 -1.025638,3.0763242 -3.530318,3.8141862 -2.329245,0.686181 -3.310719,1.640347 -3.600168,3.5 C 89.478734,17.349511 89.23224,14.5625 89.149832,9.75 Z M 95.473009,9.0850423 C 96.581725,5.591787 95.01959,2 92.391592,2 90.223779,2 90,2.4210612 90,6.5 c 0,4.100091 0.216183,4.5 2.432612,4.5 1.518344,0 2.661041,-0.719714 3.040397,-1.9149577 z m 7.730541,1.2345087 C 103.01414,2.7072955 102.84372,2.1090012 100.75,1.705733 c -1.2375,-0.2383529 0,-0.4333689 2.75,-0.4333689 2.75,0 4.00523,0.1926925 2.7894,0.4282055 -2.03125,0.3934644 -2.23784,1.0923194 -2.54645,8.6138184 -0.33586,8.185612 -0.33586,8.185612 -0.5394,0.0052 z"
       id="path426"
       inkscape:connector-curvature="0" />
  </g>
</svg>
